<?xml version="1.0" standalone="no"?><!DOCTYPE svg PUBLIC "-//W3C//DTD SVG 1.1//EN" "http://www.w3.org/Graphics/SVG/1.1/DTD/svg11.dtd"><svg t="1569750715170" class="icon" viewBox="0 0 1024 1024" version="1.1" xmlns="http://www.w3.org/2000/svg" p-id="2623" xmlns:xlink="http://www.w3.org/1999/xlink" width="200" height="200"><defs><style type="text/css"></style></defs><path d="M225.54633647 870.58956029c0-13.86066113-10.39549584-34.53614733-34.76715837-34.53614733h-104.18596954c-20.79099171 0-34.76715836 19.05840906-34.76715835 34.53614733 0 15.5932438 8.66291322 34.53614733 34.76715835 34.53614734H190.89468363c25.98873965 0 34.65165285-20.6754862 34.65165284-34.53614734zM86.70871408 179.52009704H190.89468363c25.98873965 0 34.76715836-20.79099171 34.76715836-34.53614735 0-13.86066113-10.39549584-34.53614733-34.76715836-34.53614734h-104.18596955c-20.79099171 0-34.76715836 19.05840906-34.76715835 34.53614734 0.11550551 15.5932438 8.77841872 34.53614733 34.76715835 34.53614735z" fill="#273c58" p-id="2624"></path><path d="M919.849954 6.72385484H190.89468363c-25.98873965 0-52.09298477 25.87323413-52.09298478 51.86197376v17.32582642H190.89468363c39.96490629 0 69.41881119 27.60581676 69.4188112 69.07229467s-29.45390493 69.07229467-69.4188112 69.07229469h-52.09298478v103.608442H190.89468363c39.96490629 0 69.41881119 27.60581676 69.4188112 69.07229465s-29.45390493 69.07229467-69.4188112 69.0722947h-52.09298478V559.64872876H190.89468363c39.96490629 0 69.41881119 27.60581676 69.4188112 69.07229466s-29.45390493 69.07229467-69.4188112 69.07229468h-52.09298478v103.60844201H190.89468363c39.96490629 0 69.41881119 27.60581676 69.4188112 69.07229467s-29.45390493 69.07229467-69.4188112 69.07229468h-52.09298478v17.32582642c0 25.87323413 25.98873965 51.86197377 52.09298478 51.86197376h728.95527037c25.98873965 0 52.09298477-25.87323413 52.09298477-51.86197376V58.5858286c0-25.87323413-25.98873965-51.86197377-52.09298477-51.86197376z m-98.87271612 699.73237648c-12.1280785 25.87323413-53.82556743 77.73520788-95.40755085 77.73520788-45.16265421 0-156.27895432-60.40938146-249.95392253-188.27398046-86.74463764-119.2016858-128.44212653-207.33238953-128.44212653-264.39211121 0-46.66422583 31.30199306-67.33971204 46.89523685-79.46779053l5.19774792-3.4651653c19.05840906-13.86066113 46.89523686-17.32582643 57.29073272-17.32582641 19.05840906 0 27.72132228 12.1280785 33.0345757 20.6754862 3.46516528 8.66291322 38.23232365 84.66553846 41.69748892 93.32845166 5.19774794 13.86066113 3.46516528 36.26872998-12.12807849 48.39680847l-3.46516529 1.73258264c-8.66291322 5.19774794-24.25615699 17.32582643-25.98873962 29.33839941-1.73258265 6.93033057 1.73258265 13.86066113 6.93033055 20.7909917 25.98873965 36.26872998 111.11630013 145.07491991 126.7095439 158.93558107 12.1280785 12.1280785 27.72132228 13.86066113 38.23232364 3.46516529 10.39549584-8.66291322 15.5932438-15.5932438 15.59324381-15.5932438l1.73258263-1.73258262c1.73258265 0 8.66291322-6.93033057 22.52357435-6.93033059 10.39549584 0 19.05840906 3.46516528 29.45390492 10.39549586 25.98873965 17.32582643 83.27947233 57.05972168 83.27947235 57.05972171h1.73258264c6.81482506 12.1280785 17.21032091 31.18648755 5.08224241 55.32713903z" fill="#273c58" p-id="2625"></path><path d="M86.70871408 663.25717076H190.89468363c25.98873965 0 34.76715836-20.79099171 34.76715836-34.53614734 0-13.86066113-10.39549584-34.53614733-34.76715836-34.53614734h-104.18596955c-20.79099171 0-34.76715836 19.05840906-34.76715835 34.53614734 0.11550551 15.5932438 8.77841872 34.53614733 34.76715835 34.53614734zM86.70871408 421.3886339H190.89468363c25.98873965 0 34.76715836-20.6754862 34.76715836-34.53614734s-10.39549584-34.53614733-34.76715836-34.53614733h-104.18596955c-20.79099171 0-34.76715836 19.05840906-34.76715835 34.53614733 0.11550551 15.5932438 8.77841872 34.53614733 34.76715835 34.53614734z" fill="#273c58" p-id="2626"></path></svg>