<?xml version="1.0" standalone="no"?><!DOCTYPE svg PUBLIC "-//W3C//DTD SVG 1.1//EN" "http://www.w3.org/Graphics/SVG/1.1/DTD/svg11.dtd"><svg t="1569826173474" class="icon" viewBox="0 0 1024 1024" version="1.1" xmlns="http://www.w3.org/2000/svg" p-id="2462" xmlns:xlink="http://www.w3.org/1999/xlink" width="200" height="200"><defs><style type="text/css"></style></defs><path d="M319.146667 127.744c0-28.416 21.077333-51.541333 46.933333-51.541333h292.693333c25.856 0 46.933333 23.04 46.933334 51.541333v82.517333H319.061333v-82.517333h0.170667z m588.458666 82.517333h-120.32v-82.517333c0-70.229333-52.053333-127.232-116.138666-127.232H353.877333c-64.085333 0-116.138667 57.088-116.138666 127.232v82.517333h-120.32c-64.170667 0-116.224 57.173333-116.224 127.317334V896c0 70.314667 52.053333 127.317333 116.224 127.317333h790.186666c64.085333 0 116.138667-57.173333 116.138667-127.317333V626.176l-209.578667 0.170667v55.125333c0 30.72-23.04 55.978667-51.114666 55.978667-28.16 0-51.029333-25.173333-51.029334-55.978667V626.346667H312.832v55.125333c0 30.72-22.954667 55.978667-51.029333 55.978667-28.16 0-51.114667-25.173333-51.114667-55.978667V626.346667L1.109333 626.346667v-75.093334c69.888 0 139.690667-0.512 209.578667-0.512 0.341333-30.378667 23.210667-55.125333 50.944-55.125333 27.733333 0 50.602667 24.746667 50.944 55.125333h399.530667c0.426667-30.378667 23.210667-55.125333 50.944-55.125333 27.818667 0 50.602667 24.746667 51.029333 55.125333 69.802667 0 139.690667 0.341333 209.578667 0.341334V337.578667c0.085333-70.229333-52.053333-127.317333-116.053334-127.317334z" fill="#185EF9" p-id="2463"></path></svg>