<?xml version="1.0" standalone="no"?><!DOCTYPE svg PUBLIC "-//W3C//DTD SVG 1.1//EN" "http://www.w3.org/Graphics/SVG/1.1/DTD/svg11.dtd"><svg t="1569750643597" class="icon" viewBox="0 0 1026 1024" version="1.1" xmlns="http://www.w3.org/2000/svg" p-id="2503" xmlns:xlink="http://www.w3.org/1999/xlink" width="200.390625" height="200"><defs><style type="text/css"></style></defs><path d="M1012.42311111 784.72533333q5.01333333 30.08-12.53333333 54.144t-47.62666667 29.07733334l-120.32 19.05066666q-29.07733333 5.01333333-53.64266667-12.53333333t-29.57866666-47.62666667l-102.272-647.72266666q-2.00533333-15.04 1.504-28.576t11.53066666-25.06666667 20.55466667-19.05066667 27.57333333-10.528l119.31733334-19.05066666q30.08-5.01333333 54.144 13.03466666t29.07733333 48.128zM508.08177778 72.832q30.08 0 51.136 21.056t21.056 51.136l0 669.78133333q0 30.08-21.056 51.136t-51.136 21.056l-104.27733334 0q-30.08 0-51.136-21.056t-21.056-51.136l0-669.78133333q0-30.08 16.04266667-51.136t47.12533333-21.056l113.30133334 0zM508.08177778 578.176q10.02666667 0 17.04533333-9.52533333t7.01866667-22.56q0-14.03733333-7.01866667-23.06133334t-17.04533333-9.024l-104.27733334 0q-10.02666667 0-17.04533333 9.024t-7.01866667 23.06133334q0 13.03466667 7.01866667 22.56t17.04533333 9.52533333l104.27733334 0zM508.08177778 450.83733333q10.02666667 0 17.04533333-9.52533333t7.01866667-23.56266667-7.01866667-23.06133333-17.04533333-9.024l-104.27733334 0q-10.02666667 0-17.04533333 9.024t-7.01866667 23.06133333 7.01866667 23.56266667 17.04533333 9.52533333l104.27733334 0zM193.24444444 72.832q30.08 0 51.63733334 21.056t21.55733333 51.136l0 669.78133333q0 30.08-21.55733333 51.136t-51.63733334 21.056l-104.27733333 0q-30.08 0-51.63733333-21.056t-21.55733334-51.136l0-669.78133333q0-30.08 21.55733334-51.136t51.63733333-21.056l104.27733333 0zM92.97777778 323.49866667q-11.02933333 0-18.048 9.024t-7.01866667 23.06133333q0 13.03466667 7.01866667 22.56t18.048 9.52533333l96.256 0q11.02933333 0 17.54666666-9.52533333t6.51733334-22.56q0-14.03733333-6.51733334-23.06133333t-17.54666666-9.024l-96.256 0zM193.24444444 638.336q11.02933333 0 17.54666667-9.024t6.51733333-22.05866667q0-14.03733333-6.51733333-22.56t-17.54666667-8.52266666l-100.26666666 0q-11.02933333 0-18.048 8.52266666t-7.01866667 22.56q0 13.03466667 7.01866667 22.05866667t18.048 9.024l100.26666666 0zM193.24444444 515.008q11.02933333 0 17.54666667-9.024t6.51733333-23.06133333-6.51733333-23.06133334-17.54666667-9.024l-100.26666666 0q-11.02933333 0-18.048 9.024t-7.01866667 23.06133334 7.01866667 23.06133333 18.048 9.024l100.26666666 0z" fill="#273c58" p-id="2504"></path></svg>