<?xml version="1.0" encoding="utf-8"?>
<!-- Generator: Adobe Illustrator 21.0.0, SVG Export Plug-In . SVG Version: 6.00 Build 0)  -->
<svg version="1.1" id="图层_1" xmlns="http://www.w3.org/2000/svg" xmlns:xlink="http://www.w3.org/1999/xlink" x="0px" y="0px"
	 viewBox="0 0 200 200" style="enable-background:new 0 0 200 200;" xml:space="preserve">
<path d="M198.2,108c-2,22.1-11.5,43.6-28.5,60.5c-38.5,38.4-100.8,38.4-139.3,0.1c-3.7-3.7-7-7.6-10-11.7
	c25.1,12.9,43.5,13.8,57.3,11.3c16-3.5,47.9-37,97.2-86.2c-12.1-12.1-31.7-12.1-43.9,0c-11.3,11.3-9.2,9.3-17.1,17l-2.8,2.8
	L99.8,85.5c5.9-5.9,9.5-9.5,17.4-17.4c7.9-7.9,17.9-12.7,28.2-14.2c0,0,22.7-5,40.3,12.9C198.8,80.7,198.6,89.8,198.2,108L198.2,108
	z M122.3,29.8c-16,3.5-47.9,37-97.2,86.2c12.1,12.1,31.7,12.1,43.9,0c11.3-11.3,9.3-9.2,17.1-17l2.8-2.8l11.4,16.4
	c-5.9,5.9-9.5,9.5-17.4,17.4c-7.9,7.9-17.9,12.7-28.2,14.2c0,0-22.7,5-40.3-12.9C1.1,117.3,1.4,108.2,1.8,90
	c2-22.1,11.5-43.6,28.5-60.5C68.8-8.9,131.1-8.9,169.6,29.4c3.7,3.7,7,7.6,10,11.7C154.5,28.3,136.1,27.3,122.3,29.8z"/>
</svg>
