<?xml version="1.0" standalone="no"?><!DOCTYPE svg PUBLIC "-//W3C//DTD SVG 1.1//EN" "http://www.w3.org/Graphics/SVG/1.1/DTD/svg11.dtd"><svg t="1569826262137" class="icon" viewBox="0 0 1260 1024" version="1.1" xmlns="http://www.w3.org/2000/svg" p-id="2577" xmlns:xlink="http://www.w3.org/1999/xlink" width="246.09375" height="200"><defs><style type="text/css"></style></defs><path d="M1260.798133 851.908044V184.439256L1009.28633 8.071432 741.660949 187.367932 474.037032 97.722611 206.411651 247.130503v717.17575l53.528883-29.881286 6.056503-3.924426 7.321691-3.545163 200.718304-112.062875 237.850992 75.321165 20.541736-48.526705-258.392728-86.557032-215.361686 113.525749V271.006538l215.361686-113.521356 267.623917 89.645321L1009.28633 67.835468l200.716839 134.473107v592.569353l-126.523215-0.437837 0.070288 58.185479" p-id="2578"></path><path d="M474.037032 334.160517v298.826035l33.449878 0.594521 24.67117-0.598914V334.160517M693.687764 331.23184v260.590701l33.451342 0.518375 24.671171-0.522769V331.23184M982.162393 200.905739v343.892508l33.451342 0.685311 24.67117-0.689704V200.905739M898.872299 800.862678c-45.772284 0-82.880079-37.503166-82.880078-83.675214s37.107795-83.675214 82.880078-83.675214 82.880079 37.503166 82.880079 83.675214-37.107795 83.675214-82.880079 83.675214z m0-223.134393c-76.302271 0-138.114916 62.407166-138.114916 139.459179s138.114916 306.811072 138.114916 306.811072 138.114916-229.759059 138.114917-306.811072-61.812645-139.459179-138.114917-139.459179z m0 0M90.557604 146.30496c-30.011612 0-54.341591-24.589167-54.341591-54.862896s24.329979-54.862896 54.341591-54.862895 54.341591 24.589167 54.341591 54.862895S120.567751 146.30496 90.557604 146.30496z m0-146.302031C40.528489 0.002929 0 40.920931 0 91.442064c0 50.519668 90.557604 201.164927 90.557604 201.164927s90.557604-150.645258 90.557604-201.164927C181.115208 40.920931 140.586719 0.002929 90.557604 0.002929z m0 0" p-id="2579"></path></svg>