<?xml version="1.0" standalone="no"?><!DOCTYPE svg PUBLIC "-//W3C//DTD SVG 1.1//EN" "http://www.w3.org/Graphics/SVG/1.1/DTD/svg11.dtd"><svg t="1569750796492" class="icon" viewBox="0 0 1024 1024" version="1.1" xmlns="http://www.w3.org/2000/svg" p-id="2865" xmlns:xlink="http://www.w3.org/1999/xlink" width="200" height="200"><defs><style type="text/css"></style></defs><path d="M374.12813334 524.76591356h-245.10554071v-51.06365428h245.10554071l-58.72320245-58.7232025c-10.21273087-10.21273087-10.21273087-25.53182717 0-35.74455801 10.21273087-10.21273087 25.53182717-10.21273087 35.74455802 0l119.99958763 119.99958767-119.99958763 119.99958762c-10.21273087 10.21273087-25.53182717 10.21273087-35.74455802 0-10.21273087-10.21273087-10.21273087-25.53182717 0-35.74455802l58.72320245-58.72320248z m275.74373332-51.06365428h245.10554071v51.06365428h-245.10554071l58.72320245 58.72320248c10.21273087 10.21273087 10.21273087 25.53182717 0 35.74455802-10.21273087 10.21273087-25.53182717 10.21273087-35.74455802 0l-119.99958763-119.99958762 119.99958763-119.99958767c10.21273087-10.21273087 25.53182717-10.21273087 35.74455802 0 10.21273087 10.21273087 10.21273087 25.53182717 0 35.74455801l-58.72320245 58.7232025z m-252.76508886 357.4455802h51.06365431v76.59548148c0 43.40410616-33.19137529 76.59548149-76.59548149 76.59548146h-280.85009872c-43.40410616 0-76.59548149-33.19137529-76.59548149-76.59548146v-791.48664192c0-43.40410616 33.19137529-76.59548149 76.59548149-76.59548146h280.85009872c43.40410616 0 76.59548149 33.19137529 76.59548149 76.59548146v76.59548148h-51.06365431v-76.59548148c0-12.76591356-10.21273087-25.53182717-25.53182718-25.53182714h-280.85009872c-12.76591356 0-25.53182717 10.21273087-25.53182715 25.53182714v791.48664192c0 15.31909629 10.21273087 25.53182717 25.53182715 25.53182714h280.85009872c12.76591356 0 25.53182717-10.21273087 25.53182718-25.53182714v-76.59548148z m178.72279009 0h51.06365431v76.59548148c0 15.31909629 10.21273087 25.53182717 25.53182718 25.53182714h280.85009872c12.76591356 0 25.53182717-12.76591356 25.53182715-25.53182714v-791.48664192c0-15.31909629-10.21273087-25.53182717-25.53182715-25.53182714h-280.85009872c-12.76591356 0-25.53182717 12.76591356-25.53182718 25.53182714v79.14866422h-51.06365431V116.25667904c0-43.40410616 33.19137529-76.59548149 76.59548149-76.59548146h280.85009872c43.40410616 0 76.59548149 33.19137529 76.59548149 76.59548146v791.48664192c0 43.40410616-33.19137529 76.59548149-76.59548149 76.59548146h-280.85009872c-43.40410616 0-76.59548149-33.19137529-76.59548149-76.59548146v-76.59548148z" fill="#273c58" p-id="2866"></path></svg>